<svg width="737" height="857" viewBox="0 0 737 857" fill="none" xmlns="http://www.w3.org/2000/svg">
<path d="M144.5 571.5H482.5L514.5 538L495 415L503 301L476 160.5L492 61.5L531.5 4.5H557.5L566 22L563 67V151.5L608.5 324L668.5 447L678 623.5L730.5 702L476.5 851.5L398.5 763L258 702L164 609L144.5 571.5ZM144.5 571.5L26 531L11 504.5L16.5 475.5L42.5 447L73.5 460.926M144.5 571.5L170.5 556L181.5 531L170.5 504.5L73.5 460.926M73.5 460.926V424.5M73.5 424.5L11 363L4.5 324L16.5 283.5L73.5 254.5M73.5 424.5L101.5 453.5L134 447L150 424.5V383.5L73.5 301V254.5M73.5 254.5V181M73.5 181L4.5 112L16.5 45L73.5 22V55L114.5 102.5L123 139L114.5 171.5L95 181H73.5Z" stroke="#222222" stroke-width="8"/>
</svg>
